<svg width="36" height="36" viewBox="0 0 36 36" fill="none" xmlns="http://www.w3.org/2000/svg">
<path fill-rule="evenodd" clip-rule="evenodd" d="M19.3707 5.94171C19.498 5.00836 20.3656 4.36058 21.2967 4.50381C22.1717 4.63843 22.7933 5.42712 22.7198 6.30935L22.0549 14.2879C22.0033 14.9068 22.3807 15.4809 22.9688 15.6792L22.9722 15.6804L23.0085 15.6935C23.0439 15.7066 23.1015 15.7287 23.178 15.7602C23.3312 15.8234 23.558 15.924 23.831 16.0662C24.3808 16.3526 25.0959 16.7964 25.7734 17.4258C26.3197 17.9332 27.1739 17.9016 27.6813 17.3553C28.1887 16.809 28.1572 15.9548 27.6109 15.4474C26.7111 14.6117 25.7802 14.0372 25.0784 13.6716C24.991 13.6261 24.9068 13.5836 24.8263 13.5441L25.4105 6.53357C25.6018 4.23785 23.9841 2.1855 21.7072 1.83521C19.2845 1.46248 17.0267 3.14814 16.6955 5.57691L16.5346 6.75684L16.4949 6.64055C15.8122 4.63798 13.8097 3.39682 11.7125 3.67644C9.38085 3.98733 7.6974 6.06467 7.87786 8.41064L8.49902 16.4857C7.14254 17.6845 5.04285 20.397 5.87649 24.5648C6.85234 29.4436 11.599 33.7177 18.885 33.3033L18.947 33.2997L18.9721 33.2981L18.9797 33.2977L18.9818 33.2976C19.726 33.2521 20.2932 32.6119 20.2477 31.8677C20.2023 31.1235 19.5621 30.5571 18.8179 30.6025L18.8154 30.6027L18.8083 30.6031L18.7846 30.6046L18.7317 30.6077C12.6671 30.9526 9.21293 27.4793 8.52405 24.0352C7.8393 20.6118 9.98224 18.6679 10.6491 18.2233C12.5405 16.9624 14.4363 17.3635 14.8337 17.47C14.8521 17.4749 14.8822 17.4845 14.9541 17.5106C15.9764 17.8824 16.4588 18.7709 16.4382 19.636C16.4182 20.4789 15.9329 21.2228 14.933 21.4393C14.3729 21.5605 14.0594 21.6 13.9502 21.6C13.2047 21.6 12.6002 22.2044 12.6002 22.95C12.6002 23.6956 13.2047 24.3 13.9502 24.3C14.381 24.3 14.9516 24.1978 15.5043 24.0781C17.8633 23.5675 19.0913 21.6402 19.1374 19.7001C19.183 17.7822 18.0844 15.7759 15.8768 14.9732C15.7951 14.9435 15.6717 14.8993 15.5323 14.8619C14.9977 14.7187 13.1938 14.3332 11.0947 15.026L10.5699 8.20356C10.4994 7.28669 11.1572 6.47437 12.0693 6.35275C12.8894 6.24342 13.6724 6.72873 13.9393 7.51177L15.2326 11.3052L15.2451 11.3419C15.32 11.5618 15.3983 11.7918 15.4738 11.97C15.5141 12.0652 15.5774 12.2044 15.6695 12.344C15.7514 12.4679 15.9449 12.7317 16.2986 12.8978C16.835 13.1496 17.4661 13.0885 17.9442 12.7385C18.2594 12.5076 18.3988 12.2116 18.4553 12.0743C18.5189 11.9196 18.5544 11.7708 18.5757 11.6697C18.6155 11.4803 18.6483 11.2396 18.6797 11.0094L18.6849 10.971L19.3707 5.94171ZM29.3582 32.3902L31.8422 30.956L31.9135 30.9149C32.3105 30.6858 32.7526 30.4308 33.1062 30.181C33.4696 29.9242 34.1158 29.4238 34.4957 28.5706C34.9418 27.5686 34.9418 26.4244 34.4957 25.4225C34.1158 24.5693 33.4696 24.0689 33.1062 23.8121C32.7527 23.5623 32.3106 23.3073 31.9136 23.0782L31.8422 23.0371L29.3582 21.6029L29.2869 21.5618C28.8901 21.3325 28.4481 21.0771 28.055 20.8958C27.651 20.7095 26.8945 20.4001 25.9657 20.4977C24.8749 20.6124 23.884 21.1845 23.2393 22.0718C22.6904 22.8273 22.5801 23.6372 22.5395 24.0803C22.4999 24.5113 22.5001 25.0217 22.5002 25.4801L22.5002 25.5624V28.4307L22.5002 28.513C22.5001 28.9713 22.4999 29.4817 22.5395 29.9128C22.5801 30.3559 22.6904 31.1658 23.2393 31.9213C23.884 32.8086 24.8749 33.3807 25.9657 33.4954C26.8945 33.593 27.651 33.2836 28.055 33.0973C28.4481 32.916 28.8901 32.6606 29.2869 32.4314L29.3582 32.3902ZM30.4922 25.3753C31.4137 25.9074 31.8745 26.1734 32.0291 26.5207C32.164 26.8236 32.164 27.1695 32.0291 27.4724C31.8745 27.8197 31.4137 28.0857 30.4923 28.6177L28.0082 30.0519C27.0868 30.5839 26.626 30.8499 26.2479 30.8102C25.9182 30.7755 25.6186 30.6025 25.4237 30.3343C25.2002 30.0267 25.2002 29.4947 25.2002 28.4307V25.5624C25.2002 24.4984 25.2002 23.9663 25.4237 23.6588C25.6186 23.3905 25.9182 23.2176 26.2479 23.1829C26.626 23.1432 27.0868 23.4092 28.0082 23.9412L30.4922 25.3753Z" fill="white"/>
</svg>
