<svg width="22" height="22" viewBox="0 0 22 22" fill="none" xmlns="http://www.w3.org/2000/svg">
<path fill-rule="evenodd" clip-rule="evenodd" d="M0.957773 2.79324C0.5 3.69167 0.5 4.86778 0.5 7.22V14.78C0.5 17.1322 0.5 18.3083 0.957773 19.2068C1.36044 19.997 2.00296 20.6396 2.79324 21.0422C3.69167 21.5 4.86778 21.5 7.22 21.5H14.78C17.1322 21.5 18.3083 21.5 19.2068 21.0422C19.997 20.6396 20.6396 19.997 21.0422 19.2068C21.5 18.3083 21.5 17.1322 21.5 14.78V7.22C21.5 4.86778 21.5 3.69167 21.0422 2.79324C20.6396 2.00296 19.997 1.36044 19.2068 0.957773C18.3083 0.5 17.1322 0.5 14.78 0.5H7.22C4.86778 0.5 3.69167 0.5 2.79324 0.957773C2.00296 1.36044 1.36044 2.00296 0.957773 2.79324Z" fill="white"/>
</svg>
